<?xml version="1.0" standalone="no"?>
<!DOCTYPE svg PUBLIC "-//W3C//DTD SVG 20010904//EN"
 "http://www.w3.org/TR/2001/REC-SVG-20010904/DTD/svg10.dtd">
<svg version="1.0" xmlns="http://www.w3.org/2000/svg"
 width="86.000000pt" height="60.000000pt" viewBox="0 0 86.000000 60.000000"
 preserveAspectRatio="xMidYMid meet">

<g transform="translate(0.000000,60.000000) scale(0.100000,-0.100000)"
fill="#000000" stroke="none">
<path d="M162 437 l-152 -152 0 -58 0 -57 144 0 c174 0 176 -1 176 -95 0 -72
2 -73 93 -67 l47 4 0 134 0 134 -155 0 c-85 0 -155 3 -155 7 0 4 66 74 147
155 l148 148 -70 0 -70 0 -153 -153z"/>
<path d="M550 523 l0 -67 65 64 c36 35 65 66 65 67 0 2 -29 3 -65 3 l-65 0 0
-67z"/>
<path d="M708 520 l4 -71 -81 -83 -81 -82 0 -72 0 -72 70 0 70 0 0 72 0 73 80
77 80 78 0 75 0 75 -72 0 -73 0 3 -70z"/>
<path d="M785 200 l-59 -60 65 0 65 0 -4 58 c-2 31 -5 58 -6 59 -1 1 -29 -24
-61 -57z"/>
</g>
</svg>
